<svg xmlns="http://www.w3.org/2000/svg" viewBox="0 0 11.075 9"><title>Twitter</title><path fill="#6f6f6f" d="M9.941,2.241c0.005,0.097.007,0.195,0.007,0.294A6.421,6.421,0,0,1,3.483,9,6.4387,6.4387,0,0,1,0,7.979a4.8544,4.8544,0,0,0,.542.031,4.561,4.561,0,0,0,2.822-.972A2.2747,2.2747,0,0,1,1.242,5.46a2.2985,2.2985,0,0,0,.427.041,2.2652,2.2652,0,0,0,.598-0.08A2.2746,2.2746,0,0,1,.445,3.193V3.164a2.2594,2.2594,0,0,0,1.029.285A2.2773,2.2773,0,0,1,.771.415,6.4457,6.4457,0,0,0,5.454,2.789a2.3167,2.3167,0,0,1-.059-0.518A2.2738,2.2738,0,0,1,9.326.717,4.5659,4.5659,0,0,0,10.769.166,2.2764,2.2764,0,0,1,9.77,1.422a4.4957,4.4957,0,0,0,1.305-.357A4.6277,4.6277,0,0,1,9.941,2.241"/></svg>